<svg xmlns="http://www.w3.org/2000/svg" xmlns:xlink="http://www.w3.org/1999/xlink" width="151.5px" height="191.5px">
    <path fill-rule="evenodd" stroke="rgb(0, 0, 0)" stroke-width="1px" stroke-linecap="butt" stroke-linejoin="miter"
        fill="rgb(208, 208, 208)"
        d="M122.499,185.500 L122.499,171.500 L148.500,171.500 L148.500,185.500 L122.499,185.500 ZM122.499,5.499 L148.500,5.499 L148.500,19.499 L122.499,19.499 L122.499,5.499 ZM62.499,171.500 L88.500,171.500 L88.500,185.500 L62.499,185.500 L62.499,171.500 ZM62.499,5.499 L88.500,5.499 L88.500,19.499 L62.499,19.499 L62.499,5.499 ZM22.499,171.500 L48.500,171.500 L48.500,185.500 L22.499,185.500 L22.499,171.500 Z" />
    <path fill-rule="evenodd" stroke="rgb(0, 0, 0)" stroke-width="1px" stroke-linecap="butt" stroke-linejoin="miter"
        fill="rgb(236, 236, 236)"
        d="M147.500,188.499 L146.500,188.499 L146.500,179.499 L146.497,179.499 C146.497,179.499 146.497,179.499 146.497,179.498 C146.497,174.528 142.468,170.499 137.497,170.499 C132.527,170.499 128.498,174.528 128.498,179.498 C128.498,179.512 128.499,179.524 128.500,179.538 L128.500,188.499 L123.500,188.499 L123.500,179.499 L105.500,179.499 L105.500,188.499 L84.500,188.499 L84.500,179.499 L84.497,179.499 C84.497,179.499 84.497,179.499 84.497,179.498 C84.497,174.528 80.468,170.499 75.498,170.499 C70.527,170.499 66.498,174.528 66.498,179.498 C66.498,179.509 66.499,179.520 66.499,179.531 L66.499,188.499 L46.499,188.499 L46.499,179.499 L46.498,179.499 C46.498,179.499 46.498,179.499 46.498,179.498 C46.498,174.528 42.468,170.499 37.498,170.499 C32.527,170.499 28.497,174.528 28.497,179.498 C28.497,179.514 28.499,179.530 28.499,179.545 L28.499,188.499 L3.499,188.499 C1.843,188.499 0.499,187.156 0.499,185.500 L0.499,5.499 C0.499,3.843 1.843,2.500 3.499,2.500 L28.499,2.500 L28.499,11.500 L46.499,11.500 L46.499,2.500 L66.499,2.500 L66.499,7.499 L66.728,7.499 C66.582,8.143 66.498,8.811 66.498,9.499 C66.498,14.469 70.527,18.498 75.498,18.498 C80.468,18.498 84.497,14.469 84.497,9.499 C84.497,8.811 84.413,8.143 84.267,7.499 L84.500,7.499 L84.500,2.500 L105.500,2.500 L105.500,11.500 L123.500,11.500 L123.500,2.500 L128.500,2.500 L128.500,7.499 L128.728,7.499 C128.582,8.143 128.498,8.811 128.498,9.499 C128.498,14.469 132.527,18.498 137.497,18.498 C142.468,18.498 146.497,14.469 146.497,9.499 C146.497,8.811 146.413,8.143 146.267,7.499 L146.500,7.499 L146.500,2.500 L147.500,2.500 C149.156,2.500 150.500,3.843 150.500,5.499 L150.500,185.500 C150.500,187.156 149.156,188.499 147.500,188.499 Z" />
    <path fill-rule="evenodd" stroke="rgb(0, 0, 0)" stroke-width="1px" stroke-linecap="butt" stroke-linejoin="miter"
        fill="rgb(81, 81, 81)"
        d="M144.500,188.500 L144.500,169.500 L150.500,169.500 L150.500,188.500 L144.500,188.500 ZM144.500,2.499 L150.500,2.499 L150.500,21.499 L144.500,21.499 L144.500,2.499 ZM91.500,169.500 L97.500,169.500 L97.500,183.500 L91.500,183.500 L91.500,169.500 ZM91.500,7.499 L97.500,7.499 L97.500,21.499 L91.500,21.499 L91.500,7.499 ZM53.499,169.500 L59.499,169.500 L59.499,183.500 L53.499,183.500 L53.499,169.500 ZM53.499,7.499 L59.499,7.499 L59.499,21.499 L53.499,21.499 L53.499,7.499 ZM0.499,169.500 L6.499,169.500 L6.499,188.500 L0.499,188.500 L0.499,169.500 ZM0.499,2.499 L6.499,2.499 L6.499,21.499 L0.499,21.499 L0.499,2.499 Z" />
    <path fill-rule="evenodd" stroke="rgb(0, 0, 0)" stroke-width="1px" stroke-linecap="butt" stroke-linejoin="miter"
        fill="rgb(255, 223, 93)"
        d="M136.497,170.498 C142.20,170.498 146.498,174.975 146.498,180.498 C146.498,186.21 142.20,190.499 136.497,190.499 C130.974,190.499 126.497,186.21 126.497,180.498 C126.497,174.975 130.974,170.498 136.497,170.498 Z" />
    <path fill-rule="evenodd" fill="rgb(0, 0, 0)"
        d="M136.497,176.498 C138.707,176.498 140.497,178.289 140.497,180.498 C140.497,182.708 138.707,184.498 136.497,184.498 C134.288,184.498 132.498,182.708 132.498,180.498 C132.498,178.289 134.288,176.498 136.497,176.498 Z" />
    <path fill-rule="evenodd" stroke="rgb(0, 0, 0)" stroke-width="1px" stroke-linecap="butt" stroke-linejoin="miter"
        fill="rgb(93, 158, 255)"
        d="M114.498,170.498 C120.20,170.498 124.498,174.975 124.498,180.498 C124.498,186.21 120.20,190.498 114.498,190.498 C108.974,190.498 104.497,186.21 104.497,180.498 C104.497,174.975 108.974,170.498 114.498,170.498 Z" />
    <path fill-rule="evenodd" fill="rgb(0, 0, 0)"
        d="M114.498,176.498 C116.707,176.498 118.497,178.289 118.497,180.498 C118.497,182.707 116.707,184.498 114.498,184.498 C112.288,184.498 110.497,182.707 110.497,180.498 C110.497,178.289 112.288,176.498 114.498,176.498 Z" />
    <path fill-rule="evenodd" stroke="rgb(0, 0, 0)" stroke-width="1px" stroke-linecap="butt" stroke-linejoin="miter"
        fill="rgb(93, 158, 255)"
        d="M114.498,0.499 C120.20,0.499 124.498,4.975 124.498,10.498 C124.498,16.21 120.20,20.498 114.498,20.498 C108.974,20.498 104.497,16.21 104.497,10.498 C104.497,4.975 108.974,0.499 114.498,0.499 Z" />
    <path fill-rule="evenodd" fill="rgb(0, 0, 0)"
        d="M114.498,6.498 C116.707,6.498 118.497,8.289 118.497,10.498 C118.497,12.708 116.707,14.498 114.498,14.498 C112.288,14.498 110.497,12.708 110.497,10.498 C110.497,8.289 112.288,6.498 114.498,6.498 Z" />
    <path fill-rule="evenodd" stroke="rgb(0, 0, 0)" stroke-width="1px" stroke-linecap="butt" stroke-linejoin="miter"
        fill="rgb(255, 223, 93)"
        d="M136.497,0.499 C142.20,0.499 146.498,4.975 146.498,10.498 C146.498,16.21 142.20,20.498 136.497,20.498 C130.974,20.498 126.497,16.21 126.497,10.498 C126.497,4.975 130.974,0.499 136.497,0.499 Z" />
    <path fill-rule="evenodd" fill="rgb(0, 0, 0)"
        d="M136.497,6.498 C138.707,6.498 140.497,8.289 140.497,10.498 C140.497,12.707 138.707,14.498 136.497,14.498 C134.288,14.498 132.498,12.707 132.498,10.498 C132.498,8.289 134.288,6.498 136.497,6.498 Z" />
    <path fill-rule="evenodd" stroke="rgb(0, 0, 0)" stroke-width="1px" stroke-linecap="butt" stroke-linejoin="miter"
        fill="rgb(255, 93, 93)"
        d="M37.497,0.499 C43.20,0.499 47.498,4.975 47.498,10.498 C47.498,16.21 43.20,20.498 37.497,20.498 C31.974,20.498 27.497,16.21 27.497,10.498 C27.497,4.975 31.974,0.499 37.497,0.499 Z" />
    <path fill-rule="evenodd" fill="rgb(0, 0, 0)"
        d="M37.497,6.498 C39.706,6.498 41.497,8.289 41.497,10.498 C41.497,12.708 39.706,14.498 37.497,14.498 C35.288,14.498 33.497,12.708 33.497,10.498 C33.497,8.289 35.288,6.498 37.497,6.498 Z" />
    <path fill-rule="evenodd" stroke="rgb(0, 0, 0)" stroke-width="1px" stroke-linecap="butt" stroke-linejoin="miter"
        fill="rgb(236, 236, 236)"
        d="M3.499,17.500 L147.500,17.500 C149.156,17.500 150.500,18.843 150.500,20.500 L150.500,170.499 C150.500,172.156 149.156,173.499 147.500,173.499 L3.499,173.499 C1.843,173.499 0.499,172.156 0.499,170.499 L0.499,20.500 C0.499,18.843 1.843,17.500 3.499,17.500 Z" />
    <text kerning="auto" font-family="Adobe Heiti Std" fill="rgb(0, 0, 0)" font-size="10px" x="7.5px" y="53.5px">
        <tspan font-size="10px" font-family="PingFang SC" fill="#333333">1/L1</tspan>
    </text>
    <text kerning="auto" font-family="Adobe Heiti Std" fill="rgb(0, 0, 0)" font-size="10px" x="44.5px" y="53.5px">
        <tspan font-size="10px" font-family="PingFang SC" fill="#333333">3/L2</tspan>
    </text>
    <text kerning="auto" font-family="Adobe Heiti Std" fill="rgb(0, 0, 0)" font-size="10px" x="82.5px" y="53.5px">
        <tspan font-size="10px" font-family="PingFang SC" fill="#333333">5/L3</tspan>
    </text>
    <text kerning="auto" font-family="Adobe Heiti Std" fill="rgb(0, 0, 0)" font-size="10px" x="120.5px"
        y="63.3589999999999px">
        <tspan font-size="10px" font-family="PingFang SC" fill="#333333">13NO</tspan>
    </text>
    <text kerning="auto" font-family="Adobe Heiti Std" fill="rgb(0, 0, 0)" font-size="10px" x="6.5px" y="147.5px">
        <tspan font-size="10px" font-family="PingFang SC" fill="#333333">2/T1</tspan>
    </text>
    <text kerning="auto" font-family="Adobe Heiti Std" fill="rgb(0, 0, 0)" font-size="10px" x="44.5px" y="147.5px">
        <tspan font-size="10px" font-family="PingFang SC" fill="#333333">4/T2</tspan>
    </text>
    <text kerning="auto" font-family="Adobe Heiti Std" fill="rgb(0, 0, 0)" font-size="10px" x="82.5px" y="147.5px">
        <tspan font-size="10px" font-family="PingFang SC" fill="#333333">6/T3</tspan>
    </text>
    <text kerning="auto" font-family="Adobe Heiti Std" fill="rgb(0, 0, 0)" font-size="10px" x="120.5px" y="137.359px">
        <tspan font-size="10px" font-family="PingFang SC" fill="#333333">14NO</tspan>
    </text>
    <text kerning="auto" font-family="Adobe Heiti Std" fill="rgb(0, 0, 0)" font-size="10px" x="31.5px" y="29.5px">
        <tspan font-size="10px" font-family="PingFang SC" fill="#333333">A1</tspan>
    </text>
    <text kerning="auto" font-family="Adobe Heiti Std" fill="rgb(0, 0, 0)" font-size="10px" x="104.5px" y="29.5px">
        <tspan font-size="10px" font-family="PingFang SC" fill="#333333">A2</tspan>
    </text>
    <text kerning="auto" font-family="Adobe Heiti Std" fill="rgb(0, 0, 0)" font-size="10px" x="122.5px"
        y="29.3589999999999px">
        <tspan font-size="10px" font-family="PingFang SC" fill="#333333">21NC</tspan>
    </text>
    <text kerning="auto" font-family="Adobe Heiti Std" fill="rgb(0, 0, 0)" font-size="10px" x="102.5px" y="171.5px">
        <tspan font-size="10px" font-family="PingFang SC" fill="#333333">A2</tspan>
    </text>
    <text kerning="auto" font-family="Adobe Heiti Std" fill="rgb(0, 0, 0)" font-size="10px" x="122.5px" y="171.359px">
        <tspan font-size="10px" font-family="PingFang SC" fill="#333333">22NC</tspan>
    </text>
    <path fill-rule="evenodd" stroke="rgb(0, 0, 0)" stroke-width="1px" stroke-linecap="butt" stroke-linejoin="miter"
        fill="rgb(81, 81, 81)"
        d="M149.500,134.721 L149.500,125.499 L115.500,125.499 L115.500,135.500 L3.499,135.500 C1.843,135.500 0.499,134.156 0.499,132.500 L0.499,58.499 C0.499,56.843 1.843,55.500 3.499,55.500 L115.500,55.500 L115.500,64.500 L149.500,64.500 L149.500,56.278 C150.109,56.827 150.500,57.614 150.500,58.499 L150.500,132.500 C150.500,133.385 150.109,134.172 149.500,134.721 Z" />
    <path fill-rule="evenodd" stroke="rgb(0, 0, 0)" stroke-width="1px" stroke-linecap="butt" stroke-linejoin="miter"
        fill="rgb(236, 236, 236)"
        d="M38.499,115.499 L112.500,115.499 C114.156,115.499 115.500,116.843 115.500,118.499 L115.500,134.500 C115.500,136.156 114.156,137.500 112.500,137.500 L38.499,137.500 C36.843,137.500 35.499,136.156 35.499,134.500 L35.499,118.499 C35.499,116.843 36.843,115.499 38.499,115.499 Z" />
    <path fill-rule="evenodd" stroke="rgb(0, 0, 0)" stroke-width="1px" stroke-linecap="butt" stroke-linejoin="miter"
        fill="rgb(99, 124, 207)"
        d="M8.499,76.500 L32.500,76.500 C34.156,76.500 35.500,77.843 35.500,79.499 L35.500,106.500 C35.500,108.156 34.156,109.499 32.500,109.499 L8.499,109.499 C6.843,109.499 5.499,108.156 5.499,106.500 L5.499,79.499 C5.499,77.843 6.843,76.500 8.499,76.500 Z" />
    <path fill-rule="evenodd" stroke="rgb(0, 0, 0)" stroke-width="1px" stroke-linecap="butt" stroke-linejoin="miter"
        fill="rgb(99, 124, 207)"
        d="M118.499,76.500 L142.500,76.500 C144.156,76.500 145.500,77.843 145.500,79.499 L145.500,106.500 C145.500,108.156 144.156,109.499 142.500,109.499 L118.499,109.499 C116.843,109.499 115.499,108.156 115.499,106.500 L115.499,79.499 C115.499,77.843 116.843,76.500 118.499,76.500 Z" />
    <path fill-rule="evenodd" stroke="rgb(0, 0, 0)" stroke-width="1px" stroke-linecap="butt" stroke-linejoin="miter"
        fill="rgb(56, 56, 56)"
        d="M46.500,76.500 L104.499,76.500 C106.156,76.500 107.500,77.843 107.500,79.499 L107.500,106.500 C107.500,108.156 106.156,109.499 104.499,109.499 L46.500,109.499 C44.843,109.499 43.499,108.156 43.499,106.500 L43.499,79.499 C43.499,77.843 44.843,76.500 46.500,76.500 Z" />
    <path fill-rule="evenodd" stroke="rgb(0, 0, 0)" stroke-width="1px" stroke-linecap="butt" stroke-linejoin="miter"
        fill="rgb(81, 81, 81)" d="M43.499,55.499 L107.500,55.499 L107.500,77.500 L43.499,77.500 L43.499,55.499 Z" />
    <path fill-rule="evenodd" stroke="rgb(0, 0, 0)" stroke-width="1px" stroke-linecap="butt" stroke-linejoin="miter"
        fill="rgb(56, 56, 56)" d="M56.499,61.499 L94.500,61.499 L94.500,73.500 L56.499,73.500 L56.499,61.499 Z" />
    <path fill-rule="evenodd" stroke="rgb(0, 0, 0)" stroke-width="1px" stroke-linecap="butt" stroke-linejoin="miter"
        fill="rgb(56, 56, 56)" d="M129.499,64.499 L141.500,64.499 L141.500,73.500 L129.499,73.500 L129.499,64.499 Z" />
    <path fill-rule="evenodd" stroke="rgb(0, 0, 0)" stroke-width="1px" stroke-linecap="butt" stroke-linejoin="miter"
        fill="rgb(56, 56, 56)"
        d="M129.499,113.499 L141.500,113.499 L141.500,125.500 L129.499,125.500 L129.499,113.499 Z" />
    <path fill-rule="evenodd" stroke="rgb(0, 0, 0)" stroke-width="1px" stroke-linecap="butt" stroke-linejoin="miter"
        fill="rgb(56, 56, 56)" d="M9.499,113.499 L21.500,113.499 L21.500,125.500 L9.499,125.500 L9.499,113.499 Z" />
    <path fill-rule="evenodd" stroke="rgb(0, 0, 0)" stroke-width="1px" stroke-linecap="butt" stroke-linejoin="miter"
        fill="rgb(56, 56, 56)" d="M9.499,61.499 L21.500,61.499 L21.500,73.500 L9.499,73.500 L9.499,61.499 Z" />
    <path fill-rule="evenodd" stroke="rgb(0, 0, 0)" stroke-width="1px" stroke-linecap="butt" stroke-linejoin="miter"
        fill="rgb(99, 124, 207)"
        d="M48.499,78.500 L64.500,78.500 C66.156,78.500 67.500,79.843 67.500,81.500 L67.500,104.499 C67.500,106.156 66.156,107.499 64.500,107.499 L48.499,107.499 C46.843,107.499 45.499,106.156 45.499,104.499 L45.499,81.500 C45.499,79.843 46.843,78.500 48.499,78.500 Z" />
    <path fill-rule="evenodd" stroke="rgb(0, 0, 0)" stroke-width="1px" stroke-linecap="butt" stroke-linejoin="miter"
        fill="rgb(99, 124, 207)"
        d="M86.499,78.500 L102.500,78.500 C104.156,78.500 105.500,79.843 105.500,81.500 L105.500,104.499 C105.500,106.156 104.156,107.499 102.500,107.499 L86.499,107.499 C84.843,107.499 83.499,106.156 83.499,104.499 L83.499,81.500 C83.499,79.843 84.843,78.500 86.499,78.500 Z" />
    <path fill-rule="evenodd" stroke="rgb(0, 0, 0)" stroke-width="1px" stroke-linecap="butt" stroke-linejoin="miter"
        fill="rgb(255, 223, 93)"
        d="M17.497,21.499 C23.20,21.499 27.498,25.975 27.498,31.498 C27.498,37.21 23.20,41.498 17.497,41.498 C11.974,41.498 7.497,37.21 7.497,31.498 C7.497,25.975 11.974,21.499 17.497,21.499 Z" />
    <path fill-rule="evenodd" fill="rgb(0, 0, 0)"
        d="M17.497,27.498 C19.706,27.498 21.497,29.289 21.497,31.498 C21.497,33.707 19.706,35.499 17.497,35.499 C15.288,35.499 13.498,33.707 13.498,31.498 C13.498,29.289 15.288,27.498 17.497,27.498 Z" />
    <path fill-rule="evenodd" stroke="rgb(0, 0, 0)" stroke-width="1px" stroke-linecap="butt" stroke-linejoin="miter"
        fill="rgb(124, 227, 153)"
        d="M56.497,21.499 C62.20,21.499 66.498,25.975 66.498,31.498 C66.498,37.21 62.20,41.498 56.497,41.498 C50.974,41.498 46.498,37.21 46.498,31.498 C46.498,25.975 50.974,21.499 56.497,21.499 Z" />
    <path fill-rule="evenodd" fill="rgb(0, 0, 0)"
        d="M56.497,27.498 C58.706,27.498 60.497,29.289 60.497,31.498 C60.497,33.707 58.706,35.499 56.497,35.499 C54.289,35.499 52.498,33.707 52.498,31.498 C52.498,29.289 54.289,27.498 56.497,27.498 Z" />
    <path fill-rule="evenodd" stroke="rgb(0, 0, 0)" stroke-width="1px" stroke-linecap="butt" stroke-linejoin="miter"
        fill="rgb(255, 93, 93)"
        d="M94.497,21.499 C100.20,21.499 104.497,25.975 104.497,31.498 C104.497,37.21 100.20,41.498 94.497,41.498 C88.974,41.498 84.497,37.21 84.497,31.498 C84.497,25.975 88.974,21.499 94.497,21.499 Z" />
    <path fill-rule="evenodd" fill="rgb(0, 0, 0)"
        d="M94.497,27.498 C96.706,27.498 98.498,29.289 98.498,31.498 C98.498,33.707 96.706,35.499 94.497,35.499 C92.288,35.499 90.497,33.707 90.497,31.498 C90.497,29.289 92.288,27.498 94.497,27.498 Z" />
    <path fill-rule="evenodd" stroke="rgb(0, 0, 0)" stroke-width="1px" stroke-linecap="butt" stroke-linejoin="miter"
        fill="rgb(124, 227, 153)"
        d="M134.497,31.499 C140.20,31.499 144.497,35.976 144.497,41.499 C144.497,47.21 140.20,51.498 134.497,51.498 C128.975,51.498 124.497,47.21 124.497,41.499 C124.497,35.976 128.975,31.499 134.497,31.499 Z" />
    <path fill-rule="evenodd" fill="rgb(0, 0, 0)"
        d="M134.497,37.498 C136.706,37.498 138.497,39.289 138.497,41.499 C138.497,43.708 136.706,45.498 134.497,45.498 C132.288,45.498 130.497,43.708 130.497,41.499 C130.497,39.289 132.288,37.498 134.497,37.498 Z" />
    <path fill-rule="evenodd" stroke="rgb(0, 0, 0)" stroke-width="1px" stroke-linecap="butt" stroke-linejoin="miter"
        fill="rgb(255, 223, 93)"
        d="M17.497,149.498 C23.20,149.498 27.498,153.975 27.498,159.498 C27.498,165.21 23.20,169.498 17.497,169.498 C11.974,169.498 7.497,165.21 7.497,159.498 C7.497,153.975 11.974,149.498 17.497,149.498 Z" />
    <path fill-rule="evenodd" fill="rgb(0, 0, 0)"
        d="M17.497,155.498 C19.706,155.498 21.497,157.289 21.497,159.498 C21.497,161.708 19.706,163.498 17.497,163.498 C15.288,163.498 13.498,161.708 13.498,159.498 C13.498,157.289 15.288,155.498 17.497,155.498 Z" />
    <path fill-rule="evenodd" stroke="rgb(0, 0, 0)" stroke-width="1px" stroke-linecap="butt" stroke-linejoin="miter"
        fill="rgb(124, 227, 153)"
        d="M56.497,149.498 C62.20,149.498 66.498,153.975 66.498,159.498 C66.498,165.21 62.20,169.498 56.497,169.498 C50.974,169.498 46.498,165.21 46.498,159.498 C46.498,153.975 50.974,149.498 56.497,149.498 Z" />
    <path fill-rule="evenodd" fill="rgb(0, 0, 0)"
        d="M56.497,155.498 C58.706,155.498 60.497,157.289 60.497,159.498 C60.497,161.708 58.706,163.498 56.497,163.498 C54.289,163.498 52.498,161.708 52.498,159.498 C52.498,157.289 54.289,155.498 56.497,155.498 Z" />
    <path fill-rule="evenodd" stroke="rgb(0, 0, 0)" stroke-width="1px" stroke-linecap="butt" stroke-linejoin="miter"
        fill="rgb(255, 93, 93)"
        d="M94.497,149.498 C100.20,149.498 104.497,153.975 104.497,159.498 C104.497,165.21 100.20,169.498 94.497,169.498 C88.974,169.498 84.497,165.21 84.497,159.498 C84.497,153.975 88.974,149.498 94.497,149.498 Z" />
    <path fill-rule="evenodd" fill="rgb(0, 0, 0)"
        d="M94.497,155.498 C96.706,155.498 98.498,157.289 98.498,159.498 C98.498,161.708 96.706,163.498 94.497,163.498 C92.288,163.498 90.497,161.708 90.497,159.498 C90.497,157.289 92.288,155.498 94.497,155.498 Z" />
    <path fill-rule="evenodd" stroke="rgb(0, 0, 0)" stroke-width="1px" stroke-linecap="butt" stroke-linejoin="miter"
        fill="rgb(124, 227, 153)"
        d="M134.497,138.499 C140.20,138.499 144.497,142.976 144.497,148.498 C144.497,154.21 140.20,158.499 134.497,158.499 C128.975,158.499 124.497,154.21 124.497,148.498 C124.497,142.976 128.975,138.499 134.497,138.499 Z" />
    <path fill-rule="evenodd" fill="rgb(0, 0, 0)"
        d="M134.497,144.499 C136.706,144.499 138.497,146.289 138.497,148.498 C138.497,150.707 136.706,152.499 134.497,152.499 C132.288,152.499 130.497,150.707 130.497,148.498 C130.497,146.289 132.288,144.499 134.497,144.499 Z" />
</svg>